<?xml version="1.0" encoding="iso-8859-1"?>
<!-- Generator: Adobe Illustrator 19.0.0, SVG Export Plug-In . SVG Version: 6.00 Build 0)  -->
<svg version="1.1" id="Layer_1" xmlns="http://www.w3.org/2000/svg" xmlns:xlink="http://www.w3.org/1999/xlink" x="0px" y="0px"
	 viewBox="0 0 512 512" style="enable-background:new 0 0 512 512;" xml:space="preserve">
<circle style="fill:#FFEDB5;" cx="256" cy="256" r="256"/>
<path style="fill:#FEE187;" d="M287.927,510.021c123.406-15.353,219.534-118.537,223.899-245.038L359.691,112.849l-113.747,139.99
	l5.513,5.513l-0.69,0.415l-66.35-66.35l-75.976,9.506l89.028,89.028l-68.394,49.493l29.925,28.3l-6.692,5.66L287.927,510.021z"/>
<path style="fill:#386895;" d="M142.222,205.145h-28.444c-3.332,0-6.034-2.701-6.034-6.034c0-3.332,2.701-6.034,6.034-6.034h28.444
	c3.332,0,6.034,2.701,6.034,6.034C148.256,202.443,145.555,205.145,142.222,205.145z"/>
<path style="fill:#273B7A;" d="M398.222,205.145h-28.444c-3.332,0-6.034-2.701-6.034-6.034c0-3.332,2.701-6.034,6.034-6.034h28.444
	c3.332,0,6.034,2.701,6.034,6.034C404.256,202.443,401.555,205.145,398.222,205.145z"/>
<g>
	<path style="fill:#272525;" d="M186.266,377.834h-26.764c-5.117,0-9.264-4.148-9.264-9.264v-49.411
		c0-5.117,4.148-9.264,9.264-9.264h26.764c5.117,0,9.264,4.148,9.264,9.264v49.411C195.531,373.686,191.383,377.834,186.266,377.834
		z"/>
	<path style="fill:#272525;" d="M352.497,377.834h-26.764c-5.117,0-9.264-4.148-9.264-9.264v-49.411
		c0-5.117,4.148-9.264,9.264-9.264h26.764c5.117,0,9.264,4.148,9.264,9.264v49.411C361.763,373.686,357.614,377.834,352.497,377.834
		z"/>
</g>
<path style="fill:#71E2EF;" d="M349.222,105.722H162.778c-5.889,0-10.912,4.982-11.874,11.776l-11.262,79.539v120.329h232.715
	V197.037l-11.262-79.539C360.134,110.704,355.111,105.722,349.222,105.722z"/>
<path style="fill:#38C6D9;" d="M372.358,197.037l-11.262-79.539c-0.962-6.794-5.985-11.776-11.874-11.776h-93.796v211.642h116.933
	V197.037z"/>
<path style="fill:#FFFFFF;" d="M249.732,122.397h-82.056c-2.908,0-5.41,2.205-5.968,5.261l-9.283,50.755
	c-0.736,4.025,2.141,7.768,5.968,7.768h91.339V122.397z"/>
<path style="fill:#D0D1D3;" d="M359.576,178.416l-9.283-50.755c-0.559-3.056-3.06-5.261-5.968-5.261h-82.056v63.785h91.339
	C357.435,186.182,360.312,182.439,359.576,178.416z"/>
<circle style="fill:#02B2B2;" cx="256" cy="256.896" r="20.156"/>
<g>
	<path style="fill:#386895;" d="M256,236.739c-0.193,0-0.381,0.024-0.574,0.029v40.255c0.193,0.005,0.381,0.029,0.574,0.029
		c11.131,0,20.156-9.025,20.156-20.156C276.156,245.763,267.131,236.739,256,236.739z"/>
	<path style="fill:#386895;" d="M215.23,299.041c0-44.941-32.692-77.803-75.586-84.094v102.417h75.586V299.041z"/>
</g>
<path style="fill:#273B7A;" d="M296.77,299.041c0-44.941,32.692-77.803,75.586-84.094v102.417H296.77V299.041z"/>
<g>
	<circle style="fill:#FFC61B;" cx="180.407" cy="272.015" r="15.117"/>
	<circle style="fill:#FFC61B;" cx="331.593" cy="272.015" r="15.117"/>
</g>
<path style="fill:#273B7A;" d="M374.934,343.476H137.066c-6.673,0-12.083-5.41-12.083-12.083v-6.068
	c0-6.673,5.41-12.083,12.083-12.083h237.866c6.673,0,12.083,5.41,12.083,12.083v6.068
	C387.017,338.067,381.607,343.476,374.934,343.476z"/>
<path style="fill:#121149;" d="M374.934,313.242H255.426v30.234h119.508c6.673,0,12.083-5.41,12.083-12.083v-6.068
	C387.017,318.652,381.607,313.242,374.934,313.242z"/>
<path style="fill:#608DB2;" d="M199.111,347.367c-3.332,0-6.034-2.701-6.034-6.034v-28.444c0-3.332,2.701-6.034,6.034-6.034
	c3.332,0,6.034,2.701,6.034,6.034v28.444C205.145,344.666,202.443,347.367,199.111,347.367z"/>
<path style="fill:#386895;" d="M312.889,347.367c-3.332,0-6.034-2.701-6.034-6.034v-28.444c0-3.332,2.701-6.034,6.034-6.034
	s6.034,2.701,6.034,6.034v28.444C318.923,344.666,316.221,347.367,312.889,347.367z"/>
<g>
</g>
<g>
</g>
<g>
</g>
<g>
</g>
<g>
</g>
<g>
</g>
<g>
</g>
<g>
</g>
<g>
</g>
<g>
</g>
<g>
</g>
<g>
</g>
<g>
</g>
<g>
</g>
<g>
</g>
</svg>
